<svg width="21" height="21" viewBox="0 0 21 21" fill="none" xmlns="http://www.w3.org/2000/svg">
<path d="M3.39212 5.05285L3.39687 5.04098L3.40038 5.02868C3.61557 4.27551 4.27187 3.60784 5.05565 3.271C5.32484 3.16384 5.71041 3.08475 6.17455 3.0295C6.63659 2.97449 7.16078 2.9448 7.69694 2.9299C8.44617 2.90909 9.20543 2.91731 9.84404 2.92422C10.1226 2.92723 10.3782 2.93 10.6 2.93C10.7913 2.93 11.0077 2.92794 11.2424 2.92571C11.903 2.91944 12.7078 2.91179 13.4996 2.94478C14.0347 2.96708 14.557 3.00779 15.0168 3.07893C15.4803 3.15068 15.8627 3.25087 16.1282 3.38361L16.149 3.394L16.1713 3.40038C16.9283 3.61665 17.5833 4.27173 17.7996 5.02868L17.8031 5.04098L17.8079 5.05285C17.9154 5.32155 17.9949 5.7151 18.0504 6.19086C18.1055 6.66247 18.1352 7.19809 18.1501 7.74185C18.1711 8.50932 18.1625 9.27956 18.1556 9.90224C18.1526 10.1648 18.15 10.4012 18.15 10.6C18.15 10.8 18.1527 11.0352 18.1556 11.2954C18.1626 11.9075 18.1711 12.6579 18.1501 13.4131C18.1201 14.4928 18.03 15.5304 17.8074 16.148C17.4728 16.9246 16.9217 17.4751 16.1444 17.809C15.8757 17.9159 15.4833 17.9951 15.0091 18.0504C14.5375 18.1055 14.0019 18.1352 13.4582 18.1501C12.6907 18.1711 11.9204 18.1625 11.2978 18.1556C11.0352 18.1526 10.7988 18.15 10.6 18.15C10.4012 18.15 10.1648 18.1526 9.90224 18.1556C9.27956 18.1625 8.50932 18.1711 7.74185 18.1501C7.19809 18.1352 6.66247 18.1055 6.19086 18.0504C5.7151 17.9949 5.32155 17.9154 5.05285 17.8079L5.04098 17.8031L5.02868 17.7996C4.27173 17.5833 3.61665 16.9283 3.40038 16.1713L3.39687 16.159L3.39212 16.1472C3.28439 15.8778 3.20494 15.4912 3.1495 15.0254C3.09449 14.5634 3.0648 14.0392 3.0499 13.5031C3.02909 12.7538 3.03731 11.9946 3.04422 11.356C3.04723 11.0774 3.05 10.8218 3.05 10.6C3.05 10.3782 3.04723 10.1226 3.04422 9.84404C3.03731 9.20543 3.02909 8.44617 3.0499 7.69694C3.0648 7.16078 3.09449 6.63659 3.1495 6.17455C3.20494 5.7088 3.28439 5.32217 3.39212 5.05285ZM18.8168 18.8168L18.817 18.817L18.8258 18.8072C19.9501 17.5581 20.45 16.0573 20.45 14.56V10.6V6.64C20.45 5.01537 19.8252 3.51706 18.8269 2.39391L18.8176 2.3835L18.8072 2.37418C17.5581 1.24994 16.0573 0.75 14.56 0.75H6.64C5.13129 0.75 3.63783 1.37758 2.40383 2.36478L2.38725 2.37804L2.37315 2.39391C1.37479 3.51706 0.75 5.01537 0.75 6.64V14.56C0.75 16.1846 1.37479 17.6829 2.37315 18.8061L2.3824 18.8165L2.39276 18.8258C3.64191 19.9501 5.14274 20.45 6.64 20.45H14.56C16.1717 20.45 17.6805 19.9531 18.8168 18.8168ZM10.6 7.61C12.2619 7.61 13.59 8.93807 13.59 10.6C13.59 12.2619 12.2619 13.59 10.6 13.59C8.93807 13.59 7.61 12.2619 7.61 10.6C7.61 8.93807 8.93807 7.61 10.6 7.61ZM10.6 15.77C13.4981 15.77 15.77 13.4981 15.77 10.6C15.77 7.70193 13.4981 5.43 10.6 5.43C7.70193 5.43 5.43 7.70193 5.43 10.6C5.43 13.4981 7.70193 15.77 10.6 15.77ZM15.64 6.89C16.0568 6.89 16.4236 6.74997 16.6868 6.48678C16.95 6.22358 17.09 5.85681 17.09 5.44C17.09 4.71845 16.514 3.99 15.64 3.99C15.2232 3.99 14.8564 4.13003 14.5932 4.39322C14.33 4.65642 14.19 5.02319 14.19 5.44C14.19 5.85681 14.33 6.22358 14.5932 6.48678C14.8564 6.74997 15.2232 6.89 15.64 6.89Z" fill="#9A8DFB" stroke="#9A8DFB" stroke-width="0.5"/>
</svg>
