<svg width="20" height="21" viewBox="0 0 20 21" fill="none" xmlns="http://www.w3.org/2000/svg">
<path d="M17.0409 17.6414H14.0776V13.0005C14.0776 11.8938 14.0578 10.4692 12.5363 10.4692C10.9929 10.4692 10.7567 11.675 10.7567 12.9199V17.6411H7.79336V8.09751H10.6382V9.40175H10.678C10.9627 8.91495 11.3741 8.51448 11.8684 8.24301C12.3627 7.97153 12.9214 7.8392 13.4849 7.86012C16.4884 7.86012 17.0422 9.83577 17.0422 12.406L17.0409 17.6414ZM4.44969 6.79296C4.10957 6.79302 3.77706 6.69222 3.49422 6.50331C3.21139 6.31439 2.99094 6.04584 2.86073 5.73162C2.73051 5.4174 2.69638 5.07163 2.76268 4.73802C2.82897 4.40441 2.99271 4.09795 3.23317 3.8574C3.47363 3.61685 3.78002 3.453 4.11359 3.38658C4.44716 3.32017 4.79293 3.35416 5.10719 3.48427C5.42144 3.61438 5.69006 3.83475 5.87907 4.11753C6.06808 4.4003 6.16901 4.73278 6.16907 5.07291C6.16911 5.29875 6.12466 5.52239 6.03828 5.73105C5.95189 5.93972 5.82527 6.12932 5.66561 6.28904C5.50595 6.44877 5.31638 6.57547 5.10775 6.66194C4.89913 6.7484 4.67552 6.79292 4.44969 6.79296ZM5.93137 17.6414H2.96491V8.09751H5.93137V17.6414ZM18.5183 0.60146H1.47583C1.08901 0.597095 0.716265 0.746484 0.439533 1.0168C0.162802 1.28712 0.00472088 1.65624 0 2.04307V19.1568C0.00455931 19.5438 0.162547 19.9132 0.43927 20.1838C0.715992 20.4544 1.08882 20.6041 1.47583 20.6H18.5183C18.9061 20.6048 19.28 20.4556 19.5578 20.185C19.8356 19.9144 19.9946 19.5446 20 19.1568V2.04183C19.9945 1.65424 19.8353 1.28469 19.5575 1.01438C19.2797 0.744075 18.9059 0.595113 18.5183 0.600225" fill="#9A8DFB"/>
</svg>
